<?xml version="1.0" encoding="UTF-8" standalone="no"?>
<!-- Generator: Adobe Illustrator 28.3.0, SVG Export Plug-In . SVG Version: 6.00 Build 0)  -->

<svg
   version="1.1"
   id="svg16030"
   x="0px"
   y="0px"
   viewBox="0 0 4096 4096"
   style="enable-background:new 0 0 4096 4096;"
   xml:space="preserve"
   sodipodi:docname="distributor-logo copie.svg"
   inkscape:version="1.3.2 (091e20ef0f, 2023-11-25)"
   inkscape:export-filename="fedora-logo-sprite.png"
   inkscape:export-xdpi="3"
   inkscape:export-ydpi="3"
   xmlns:inkscape="http://www.inkscape.org/namespaces/inkscape"
   xmlns:sodipodi="http://sodipodi.sourceforge.net/DTD/sodipodi-0.dtd"
   xmlns="http://www.w3.org/2000/svg"
   xmlns:svg="http://www.w3.org/2000/svg"><defs
   id="defs16204" /><sodipodi:namedview
   id="namedview16202"
   pagecolor="#ffffff"
   bordercolor="#000000"
   borderopacity="0.25"
   inkscape:showpageshadow="2"
   inkscape:pageopacity="0.0"
   inkscape:pagecheckerboard="0"
   inkscape:deskcolor="#d1d1d1"
   showgrid="false"
   inkscape:zoom="0.10793161"
   inkscape:cx="968.2057"
   inkscape:cy="1334.1782"
   inkscape:window-width="1920"
   inkscape:window-height="888"
   inkscape:window-x="0"
   inkscape:window-y="0"
   inkscape:window-maximized="0"
   inkscape:current-layer="svg16030"
   inkscape:export-bgcolor="#ffffff00" />
<style
   type="text/css"
   id="style16197">
	.st0{stroke:#000000;stroke-miterlimit:10;}
</style>

<g
   inkscape:groupmode="layer"
   id="layer2"
   inkscape:label="Layer 2"><ellipse
     style="enable-background:new 0 0 4096 4096;fill:#ffffff;stroke:#ffffff;stroke-width:0.995453"
     id="path1"
     cx="1289.8021"
     cy="1978.0031"
     rx="978.41406"
     ry="807.93213" /></g><g
   id="layer1"
   transform="matrix(17.514934,0,0,17.514934,-6493.3222,-5747.9229)"
   style="fill:#ffffff"><g
     id="g11328"
     transform="matrix(1.8680254,0,0,1.8680254,-911.5585,147.87472)"
     style="opacity:0.716;fill:#ffffff" /><path
     style="fill:#ffffff;stroke:none;stroke-width:0.822138"
     d="m 407.45329,464.28149 c -3.85452,0.35019 -12.3085,4.88117 -8.1655,9.75468 3.00347,3.53304 8.46739,4.28017 12.70069,4.69992 1.39789,0.13859 3.56029,-0.47778 4.82778,0.18253 1.12084,0.58389 2.01593,1.99501 2.92593,2.87822 2.07561,2.01447 4.21319,3.96819 6.43704,5.80536 6.45432,5.33197 13.97598,9.34687 22.09075,11.00501 11.77431,2.40586 24.37265,0.27928 35.69632,-3.38715 7.42068,-2.40269 14.55906,-5.7816 22.23705,-7.27279 5.67469,-1.10213 11.37271,-1.46039 17.11668,-1.72244 3.86892,-0.17652 7.98161,-0.50567 11.85,-0.12056 13.58983,1.35292 26.54255,5.36606 39.06113,10.79637 0.33105,-1.44868 -0.005,-3.10453 -0.13535,-4.57277 -0.38908,-4.36009 -1.58524,-8.74671 -3.14164,-12.80379 -2.02477,-5.27798 -4.49052,-10.76751 -7.90734,-15.24259 -4.6005,-6.02536 -10.98212,-10.28614 -17.63605,-13.46053 -3.01044,-1.43617 -6.25332,-2.9091 -9.50927,-3.61117 9.75448,-9.72585 24.58702,-12.82581 37.59817,-13.41948 3.73932,-0.17062 7.52765,-0.30131 11.26482,0.007 -0.72693,-5.61918 -4.26062,-11.53631 -7.2173,-16.15714 -3.76738,-5.88784 -8.50024,-11.47733 -13.99568,-15.67621 -9.59425,-7.33067 -21.7383,-10.69348 -33.50186,-10.69348 1.31534,-3.17627 3.97958,-5.97543 6.29074,-8.38342 7.58353,-7.90127 17.14332,-11.97466 27.50372,-14.17502 3.79602,-0.80622 7.81707,-0.90192 11.55741,-1.82971 -1.7238,-2.54962 -4.29646,-4.68339 -6.58333,-6.6691 -5.39565,-4.68511 -11.28144,-8.54356 -17.55557,-11.81206 -29.8521,-15.55141 -65.66949,-13.38061 -94.94635,2.36342 -8.17275,4.39502 -15.83557,10.10451 -22.82222,16.31157 -2.14308,1.90395 -4.27524,3.85694 -6.29075,5.90545 -0.99901,1.01536 -2.04471,2.65714 -3.23162,3.39782 -0.61178,0.38179 -1.55585,-0.12948 -2.18134,-0.2945 -1.79975,-0.47482 -3.59965,-0.9492 -5.41297,-1.36419 -5.90745,-1.35194 -12.5157,-2.84532 -18.57964,-2.08974 -2.61944,0.3264 -5.38808,0.73087 -6.94197,3.24446 -1.85114,2.99444 -1.08694,7.25555 -0.46068,10.51739 1.12975,5.88425 3.30608,11.59919 5.62666,17.07171 0.95909,2.26178 2.50983,4.62153 3.15678,6.98572 0.17255,0.63059 -0.27591,1.40668 -0.44048,2.00741 -0.41203,1.50404 -0.75801,3.03324 -1.02453,4.57278 -0.80207,4.63328 -0.99294,9.32423 -0.93929,14.02318 0.0902,7.89932 1.8551,15.83688 5.01867,23.01632 1.59833,3.62727 3.78046,6.77407 5.66039,10.21253 m 18.72594,1.06698 c 1.98116,-3.16329 2.01482,-6.55326 1.76866,-10.21253 -0.11141,-1.65611 -0.11238,-3.59495 -0.6194,-5.18249 -0.55029,-1.72304 -1.64276,-3.46352 -2.31963,-5.18249 1.97554,0.84423 4.39381,1.14297 5.64211,-1.22163 0.71513,-1.35461 0.49808,-3.799 0.68984,-5.33267 0.4606,-3.68384 1.05494,-7.35837 1.87758,-10.97466 3.23446,-14.21859 10.40707,-29.65883 25.73123,-32.22445 2.39409,-0.40083 4.7504,-0.83315 7.16853,-0.32625 7.50395,1.57304 11.63564,9.44865 13.84938,16.39354 1.47408,4.62448 2.11222,9.50016 2.56063,14.32805 1.15282,12.41184 0.93841,27.75309 -8.09596,37.16604 -6.42109,6.69016 -16.37218,8.80816 -25.13814,7.27598 -5.2801,-0.92289 -10.24478,-3.14795 -15.50741,-4.13691 -2.58299,-0.48539 -5.01438,-0.36953 -7.60742,-0.36953 m -7.02223,-28.04637 -1.02407,-0.76212 -0.1463,0.91454 c -2.96637,0.46534 -3.51017,4.62533 -3.51111,7.16403 -0.002,4.9291 1.21097,10.21997 3.3287,14.63288 0.85666,1.7851 1.8879,3.64369 3.54723,4.7252 v 0.15243 c -2.18969,-0.002 -4.25858,-0.89411 -6.43703,-1.05335 -1.07734,-0.0787 -2.09369,-0.26897 -2.63335,0.90092 -0.74334,-0.50575 -1.11796,-1.64734 -1.54716,-2.43881 -1.17723,-2.17085 -2.27322,-4.38358 -3.14335,-6.70674 -2.3634,-6.31003 -3.61027,-12.30071 -4.25828,-19.05324 -0.33204,-3.45998 -0.64047,-6.7436 -0.22622,-10.21254 0.41806,-3.50077 1.19404,-7.43217 3.18319,-10.36496 0.94151,-1.38815 2.50447,-2.71087 4.23627,-1.98012 2.06628,0.87188 2.61516,4.11364 3.09074,6.09563 0.8318,3.46663 1.40082,7.14687 2.51887,10.51737 0.84831,2.55737 2.1887,4.90284 3.02187,7.46888 m 45.35188,-15.62847 c -4.29833,0.75417 -5.12015,5.93069 -5.12037,9.68386 -3.9e-4,6.30108 0.62958,13.51051 3.03125,19.35809 1.75246,4.2669 4.51048,6.87144 9.11134,6.04753 3.68682,-0.66023 4.22793,-5.79953 4.24248,-8.94362 0.031,-6.67967 -0.49895,-14.81263 -3.41887,-20.88235 -1.38929,-2.88793 -4.4571,-5.85809 -7.84583,-5.26351 z"
     id="path2" /><path
     id="Gablue"
     class="s0"
     aria-label="Gablue"
     d="m 424.81422,520.61737 0.29082,14.70603 q -1.18977,1.27781 -2.98767,2.24177 -1.77147,0.96396 -3.80733,1.61408 -2.03588,0.6277 -4.20395,0.96395 -2.14161,0.29144 -4.0717,0.29144 -3.72802,0 -6.9008,-1.12088 -3.14633,-1.14332 -5.44658,-3.13848 -2.27384,-2.01762 -3.54294,-4.73015 -1.29556,-2.71254 -1.29556,-5.85103 0,-2.37627 0.63456,-4.6629 0.661,-2.2866 1.85079,-4.30418 1.18979,-2.04003 2.93482,-3.72136 1.71858,-1.70374 3.91309,-2.93671 2.1945,-1.23298 4.81203,-1.90552 2.61754,-0.67252 5.57881,-0.67252 1.11046,0 2.37957,0.0897 1.26911,0.0673 2.48534,0.24662 1.2691,0.17932 2.45889,0.51559 1.1898,0.31384 2.16806,0.80704 l -0.71388,8.36181 q -1.45418,-0.47076 -2.98768,-0.60527 -1.5335,-0.17935 -3.01414,-0.17935 -2.0623,0 -3.86021,0.53803 -1.79789,0.53802 -3.11989,1.54683 -1.32198,0.98636 -2.08875,2.44354 -0.79319,1.43472 -0.79319,3.25056 0,1.14329 0.37015,2.21936 0.37018,1.05363 1.08403,1.88307 0.74034,0.80705 1.82437,1.32265 1.11047,0.4932 2.56466,0.4932 0.97825,0 2.00941,-0.22417 1.05758,-0.20177 1.82435,-0.73979 l 0.0793,-1.70375 -6.18692,-0.0897 0.31729,-6.56841 q 3.83377,-0.11208 7.69399,-0.17935 3.83375,-0.0897 7.74683,-0.20175 z m 24.74763,-12.17282 10.07356,29.4569 -12.79684,1.41231 -1.55998,-4.95432 h -5.86963 l -1.29553,4.95432 -13.16701,-1.09847 10.25864,-29.16546 z m -9.06884,19.21199 h 3.8602 l -1.95652,-7.62202 z m 49.75968,4.34902 q 0,1.81584 -0.81964,3.11609 -0.76677,1.32262 -2.08875,2.24177 -1.32199,0.91912 -3.04057,1.50199 -1.69214,0.58285 -3.56938,0.91911 -1.85078,0.31386 -3.728,0.42595 -1.87723,0.11206 -3.49006,0.11206 -1.61283,0 -3.3314,-0.0897 -1.7186,-0.11209 -3.41076,-0.35868 -1.69212,-0.22419 -3.35784,-0.6277 -1.63925,-0.40352 -3.1199,-1.03121 l -0.0527,-28.20151 q 1.45418,-0.49319 3.06703,-0.89673 1.63924,-0.40349 3.30495,-0.67251 1.71858,-0.29142 3.3843,-0.40353 1.69215,-0.15693 3.2521,-0.15693 1.82433,0 3.70154,0.17935 1.87725,0.20177 3.59583,0.67254 1.74502,0.44836 3.2521,1.18815 1.48063,0.73977 2.59109,1.81582 1.13691,1.05364 1.77146,2.48837 0.63457,1.41232 0.63457,3.273 0,1.23297 -0.42303,2.30903 -0.39663,1.07605 -1.18979,1.9279 -0.76676,0.85188 -1.87724,1.45716 -1.11048,0.60528 -2.5118,0.8743 1.69217,0.3811 3.06704,1.09847 1.37486,0.71736 2.35314,1.74858 0.97826,1.03122 1.48064,2.33143 0.55523,1.27783 0.55523,2.75738 z m -13.11414,-12.48665 q 0,-0.6277 -0.31729,-1.07605 -0.31727,-0.44837 -0.76676,-0.7398 -0.44946,-0.29142 -1.0047,-0.40352 -0.50235,-0.1345 -0.92538,-0.1345 -0.50236,0 -1.00471,0.1345 -0.47594,0.1121 -0.95183,0.29144 l -0.15865,4.86465 q 0.60811,0 1.48063,-0.0897 0.8725,-0.0897 1.66571,-0.3587 0.84605,-0.31386 1.4013,-0.89672 0.58168,-0.58285 0.58168,-1.59164 z m -3.67512,7.15124 q -0.74034,0 -1.4542,0.1121 l -0.10579,4.99916 q 0.39659,0.0674 0.76675,0.1345 0.37016,0.0448 0.74032,0.0448 0.52879,0 1.18978,-0.0897 0.63457,-0.1121 1.21624,-0.40352 0.55523,-0.29143 0.92538,-0.80707 0.39661,-0.49316 0.39661,-1.32262 0,-0.82946 -0.39661,-1.36747 -0.37015,-0.51563 -0.89895,-0.80705 -0.55523,-0.31385 -1.18977,-0.40351 -0.661,-0.0897 -1.18979,-0.0897 z m 30.29999,1.52441 H 514.26 l -1.08405,9.7293 -21.73348,1.43475 0.81962,-31.27275 h 13.4314 z m 42.46227,-19.21201 q -1.16335,7.71172 -1.98298,15.35616 -0.81964,7.59962 -1.58639,15.33372 l -10.57592,0.6501 0.47592,-3.36264 q -0.52878,0.5156 -1.21623,0.87429 -0.68744,0.38111 -1.45417,0.6053 -0.76677,0.22417 -1.61284,0.33626 -0.81965,0.0897 -1.55996,0.0673 -1.77146,-0.0224 -3.30495,-0.56043 -1.55996,-0.58288 -2.85552,-1.50198 -1.2691,-0.94155 -2.30024,-2.15211 -1.0576,-1.25538 -1.77147,-2.62288 -0.68744,-1.36748 -1.08402,-2.80222 -0.37017,-1.41232 -0.37017,-2.75739 0,-1.97275 0.0794,-4.05759 0.10578,-2.12968 0.3437,-4.25936 0.23796,-2.12969 0.60812,-4.19214 0.37016,-2.08483 0.95185,-3.99035 3.1463,0.13452 6.31908,0.2466 3.17278,0.11208 6.31911,0.0674 -0.58167,1.90549 -1.18978,3.83341 -0.55523,1.90552 -1.03115,3.83346 -0.44949,1.92791 -0.74031,3.87825 -0.29084,1.95035 -0.29084,3.94552 0,0.47078 0.0527,1.32265 0.0528,0.85188 0.26438,1.68133 0.23797,0.82945 0.66101,1.45716 0.47592,0.62769 1.29555,0.62769 0.97827,0 1.74503,-0.71736 0.79319,-0.71737 1.37486,-1.92794 0.60813,-1.18814 1.00473,-2.77978 0.44947,-1.56925 0.74029,-3.273 0.29085,-1.72616 0.47593,-3.47475 0.18508,-1.74858 0.26442,-3.2954 0.10578,-1.54683 0.13218,-2.77982 0.0528,-1.23296 0.0528,-1.9055 0,-0.42592 -0.0265,-0.85185 -0.0266,-0.40354 -0.0793,-0.85189 1.66571,0.0448 3.33142,0.0674 1.63925,0.0224 3.33139,0.0224 1.29556,0 2.56468,0 1.32197,-0.0224 2.64397,-0.0897 z m 29.95627,13.1368 q 0,1.90551 -0.31726,3.81102 -4.41547,0.2466 -8.77802,0.78462 -4.36256,0.51561 -8.72511,1.05363 0.66098,1.56924 2.08871,2.51079 1.4542,0.94155 3.43718,0.94155 1.03115,0 2.24737,-0.31387 1.2427,-0.33625 2.45893,-0.82943 1.21622,-0.4932 2.32669,-1.05363 1.11046,-0.58287 1.90366,-1.03122 l -1.24267,9.93105 q -1.0047,0.6501 -2.1945,1.12089 -1.16336,0.44835 -2.43247,0.73977 -1.26911,0.29143 -2.53822,0.42595 -1.29556,0.11206 -2.53822,0.11206 -2.56464,0 -4.67984,-0.58284 -2.11517,-0.58286 -3.83377,-1.63649 -1.71857,-1.07605 -3.01413,-2.51079 -1.26911,-1.45716 -2.14162,-3.16091 -0.84608,-1.70373 -1.29555,-3.60925 -0.42303,-1.90551 -0.42303,-3.85584 0,-2.04002 0.42303,-4.08002 0.44947,-2.04001 1.322,-3.92311 0.89895,-1.8831 2.24739,-3.47475 1.37485,-1.61408 3.17275,-2.82464 1.82435,-1.21056 4.09816,-1.88308 2.30029,-0.67254 5.05001,-0.67254 2.30026,0 4.17749,0.53803 1.9301,0.53803 3.3843,1.50199 1.50707,0.94154 2.59108,2.24177 1.11048,1.32266 1.79791,2.89189 0.74031,1.56923 1.0576,3.31783 0.37015,1.72617 0.37015,3.51957 z M 565.844,521.46926 v -0.49321 q 0,-0.60527 -0.15864,-1.23297 -0.13218,-0.67253 -0.50235,-1.18813 -0.34371,-0.53803 -0.89895,-0.85189 -0.58167,-0.35867 -1.42775,-0.35867 -1.03114,0 -1.82434,0.49318 -0.79319,0.44835 -1.34841,1.16573 -0.58171,0.71736 -0.9254,1.54683 -0.37015,0.82945 -0.55523,1.52439 z"
     style="fill:#ffffff;stroke:none;stroke-width:13.6338;stroke-linejoin:round;paint-order:stroke fill markers" /><ellipse
     style="fill:#ffffff;fill-opacity:0;stroke:none;stroke-width:0.0570941"
     id="path3"
     cx="475.25772"
     cy="420.53314"
     rx="39.356644"
     ry="37.240704" /></g><rect
   style="fill:#fefefe;fill-opacity:1;stroke:#ffffff;stroke-width:1.44741"
   id="rect4"
   width="1645.0535"
   height="1615.3761"
   x="1067.5591"
   y="876.68292" /></svg>
